<svg width="168" height="52" viewBox="0 0 168 52" fill="none" xmlns="http://www.w3.org/2000/svg">
<path d="M2.2017 41V11.9091H22.0597V17.6193H9.23295V23.5852H20.7955V29.3097H9.23295V41H2.2017ZM65.3871 20.6307C65.2924 19.589 64.871 18.7794 64.1229 18.2017C63.3842 17.6146 62.3284 17.321 60.9553 17.321C60.0462 17.321 59.2886 17.4394 58.6825 17.6761C58.0765 17.9129 57.6219 18.2396 57.3189 18.6562C57.0159 19.0634 56.8596 19.5322 56.8501 20.0625C56.8312 20.4981 56.9164 20.8816 57.1058 21.2131C57.3047 21.5445 57.5888 21.8381 57.9581 22.0938C58.3369 22.34 58.7914 22.5578 59.3217 22.7472C59.852 22.9366 60.4486 23.1023 61.1115 23.2443L63.6115 23.8125C65.0509 24.125 66.3198 24.5417 67.4183 25.0625C68.5263 25.5833 69.4543 26.2036 70.2024 26.9233C70.96 27.643 71.5329 28.4716 71.9212 29.4091C72.3094 30.3466 72.5083 31.3977 72.5178 32.5625C72.5083 34.3996 72.0443 35.9763 71.1257 37.2926C70.2071 38.6089 68.8861 39.6174 67.1626 40.3182C65.4486 41.0189 63.3795 41.3693 60.9553 41.3693C58.5215 41.3693 56.4003 41.0047 54.5916 40.2756C52.7829 39.5464 51.3767 38.4384 50.3729 36.9517C49.3691 35.465 48.853 33.5852 48.8246 31.3125H55.5575C55.6143 32.25 55.8653 33.0312 56.3104 33.6562C56.7554 34.2812 57.3662 34.7547 58.1428 35.0767C58.9287 35.3987 59.8378 35.5597 60.87 35.5597C61.817 35.5597 62.6219 35.4318 63.2848 35.1761C63.9572 34.9205 64.4732 34.5653 64.8331 34.1108C65.1929 33.6562 65.3776 33.1354 65.3871 32.5483C65.3776 31.9991 65.2072 31.5303 64.8757 31.142C64.5443 30.7443 64.0329 30.4034 63.3416 30.1193C62.6598 29.8258 61.7886 29.5559 60.728 29.3097L57.6882 28.5994C55.1693 28.0218 53.1854 27.089 51.7365 25.8011C50.2876 24.5038 49.5679 22.7519 49.5774 20.5455C49.5679 18.7462 50.0509 17.1695 51.0263 15.8153C52.0017 14.4612 53.3511 13.4053 55.0746 12.6477C56.7981 11.8902 58.763 11.5114 60.9695 11.5114C63.2232 11.5114 65.1787 11.8949 66.8359 12.6619C68.5026 13.4195 69.7952 14.4848 70.7138 15.858C71.6323 17.2311 72.1011 18.822 72.12 20.6307H65.3871ZM75.1172 17.6193V11.9091H99.7053V17.6193H90.8842V41H83.9524V17.6193H75.1172ZM137.944 41V11.9091H150.075C152.253 11.9091 154.076 12.2169 155.543 12.8324C157.021 13.4479 158.129 14.3097 158.867 15.4176C159.615 16.5256 159.989 17.8087 159.989 19.267C159.989 20.375 159.757 21.3646 159.293 22.2358C158.829 23.0975 158.19 23.8125 157.376 24.3807C156.561 24.9489 155.619 25.3466 154.549 25.5739V25.858C155.723 25.9148 156.808 26.232 157.802 26.8097C158.806 27.3873 159.611 28.1922 160.217 29.2244C160.823 30.2472 161.126 31.4593 161.126 32.8608C161.126 34.4233 160.728 35.8201 159.933 37.0511C159.137 38.2727 157.987 39.2386 156.481 39.9489C154.975 40.6496 153.147 41 150.998 41H137.944ZM144.975 35.3324H149.322C150.846 35.3324 151.969 35.0436 152.688 34.4659C153.417 33.8883 153.782 33.0833 153.782 32.0511C153.782 31.303 153.607 30.6591 153.256 30.1193C152.906 29.5701 152.409 29.1487 151.765 28.8551C151.121 28.5521 150.349 28.4006 149.45 28.4006H144.975V35.3324ZM144.975 23.8693H148.867C149.634 23.8693 150.316 23.7415 150.913 23.4858C151.509 23.2301 151.973 22.8608 152.305 22.3778C152.646 21.8949 152.816 21.3125 152.816 20.6307C152.816 19.6553 152.47 18.8883 151.779 18.3295C151.088 17.7708 150.155 17.4915 148.981 17.4915H144.975V23.8693Z" fill="#BFC21E"/>
<path d="M38.3097 31.5824V19.1818H45.2415V41H38.6222V36.9375H38.3949C37.9119 38.2727 37.0881 39.3333 35.9233 40.1193C34.768 40.8958 33.3712 41.2841 31.733 41.2841C30.2462 41.2841 28.9394 40.9432 27.8125 40.2614C26.6856 39.5795 25.8097 38.6278 25.1847 37.4062C24.5597 36.1752 24.2424 34.7358 24.233 33.0881V19.1818H31.179V31.7244C31.1884 32.9081 31.5009 33.8409 32.1165 34.5227C32.732 35.2045 33.5701 35.5455 34.6307 35.5455C35.322 35.5455 35.9422 35.3939 36.4915 35.0909C37.0502 34.7784 37.4905 34.3286 37.8125 33.7415C38.1439 33.1449 38.3097 32.4252 38.3097 31.5824Z" fill="#2BC21E"/>
<path d="M103.139 41V19.1818H110.085V41H103.139ZM106.619 16.6392C105.644 16.6392 104.806 16.3172 104.105 15.6733C103.404 15.0199 103.054 14.2339 103.054 13.3153C103.054 12.4062 103.404 11.6297 104.105 10.9858C104.806 10.3324 105.644 10.0057 106.619 10.0057C107.604 10.0057 108.442 10.3324 109.134 10.9858C109.834 11.6297 110.185 12.4062 110.185 13.3153C110.185 14.2339 109.834 15.0199 109.134 15.6733C108.442 16.3172 107.604 16.6392 106.619 16.6392ZM120.657 41.3693C119.265 41.3693 118.029 41.1373 116.95 40.6733C115.879 40.1998 115.032 39.4896 114.407 38.5426C113.791 37.5862 113.484 36.3883 113.484 34.9489C113.484 33.7367 113.697 32.714 114.123 31.8807C114.549 31.0473 115.136 30.3703 115.884 29.8494C116.632 29.3286 117.494 28.9356 118.469 28.6705C119.445 28.3958 120.487 28.2112 121.594 28.1165C122.835 28.0028 123.834 27.8845 124.592 27.7614C125.349 27.6288 125.898 27.4441 126.239 27.2074C126.59 26.9612 126.765 26.6155 126.765 26.1705V26.0994C126.765 25.3703 126.514 24.8068 126.012 24.4091C125.51 24.0114 124.833 23.8125 123.981 23.8125C123.062 23.8125 122.324 24.0114 121.765 24.4091C121.206 24.8068 120.851 25.3561 120.7 26.0568L114.293 25.8295C114.483 24.5038 114.97 23.3201 115.756 22.2784C116.552 21.2273 117.641 20.4034 119.023 19.8068C120.415 19.2008 122.087 18.8977 124.038 18.8977C125.43 18.8977 126.713 19.0634 127.887 19.3949C129.061 19.7169 130.084 20.1903 130.955 20.8153C131.826 21.4309 132.499 22.1884 132.972 23.0881C133.455 23.9877 133.697 25.0152 133.697 26.1705V41H127.163V37.9602H126.992C126.604 38.6989 126.107 39.3239 125.501 39.8352C124.904 40.3466 124.199 40.7301 123.384 40.9858C122.579 41.2415 121.67 41.3693 120.657 41.3693ZM122.802 36.8239C123.55 36.8239 124.222 36.6723 124.819 36.3693C125.425 36.0663 125.908 35.6496 126.268 35.1193C126.628 34.5795 126.808 33.9545 126.808 33.2443V31.1705C126.609 31.2746 126.367 31.3693 126.083 31.4545C125.808 31.5398 125.505 31.6203 125.174 31.696C124.843 31.7718 124.502 31.8381 124.151 31.8949C123.801 31.9517 123.465 32.0038 123.143 32.0511C122.489 32.1553 121.931 32.3163 121.467 32.5341C121.012 32.7519 120.662 33.036 120.415 33.3864C120.179 33.7273 120.06 34.1345 120.06 34.608C120.06 35.3277 120.316 35.8769 120.827 36.2557C121.348 36.6345 122.006 36.8239 122.802 36.8239Z" fill="#26BBEB"/>
</svg>
