<svg width="137" height="48" viewBox="0 0 137 48" fill="none" xmlns="http://www.w3.org/2000/svg">
<path d="M8.49432 39H0.9375L10.7528 9.90909H20.1136L29.929 39H22.3722L15.5398 17.2386H15.3125L8.49432 39ZM7.4858 27.5511H23.2812V32.892H7.4858V27.5511ZM40.7031 15.6193V9.90909H65.2912V15.6193H56.4702V39H49.5384V15.6193H40.7031ZM75.7599 39.4119C73.4777 39.4119 71.508 38.9621 69.8509 38.0625C68.2031 37.1534 66.9342 35.8608 66.044 34.1847C65.1634 32.4991 64.723 30.4962 64.723 28.1761C64.723 25.9223 65.1681 23.9527 66.0582 22.267C66.9484 20.572 68.2031 19.2557 69.8224 18.3182C71.4418 17.3712 73.3499 16.8977 75.5469 16.8977C77.0999 16.8977 78.5204 17.1392 79.8082 17.6222C81.0961 18.1051 82.2088 18.8201 83.1463 19.767C84.0838 20.714 84.813 21.8835 85.3338 23.2756C85.8546 24.6581 86.1151 26.2443 86.1151 28.0341V29.767H67.152V25.733H79.652C79.6425 24.9943 79.4673 24.3362 79.1264 23.7585C78.7855 23.1809 78.3168 22.7311 77.7202 22.4091C77.133 22.0777 76.456 21.9119 75.6889 21.9119C74.9124 21.9119 74.2164 22.0871 73.6009 22.4375C72.9853 22.7784 72.4976 23.2472 72.1378 23.8438C71.7779 24.4309 71.5885 25.0985 71.5696 25.8466V29.9517C71.5696 30.8419 71.7448 31.6231 72.0952 32.2955C72.4455 32.9583 72.9427 33.4744 73.5866 33.8438C74.2306 34.2131 74.9976 34.3977 75.8878 34.3977C76.5033 34.3977 77.062 34.3125 77.5639 34.142C78.0658 33.9716 78.4967 33.7206 78.8565 33.3892C79.2164 33.0578 79.4863 32.6506 79.6662 32.1676L86.044 32.3523C85.7789 33.7822 85.1965 35.0275 84.2969 36.0881C83.4067 37.1392 82.2372 37.9583 80.7884 38.5455C79.3395 39.1231 77.6634 39.4119 75.7599 39.4119ZM99.8473 39.4119C97.5462 39.4119 95.5717 38.9384 93.924 37.9915C92.2857 37.0445 91.0263 35.7282 90.1456 34.0426C89.2649 32.3475 88.8246 30.3873 88.8246 28.1619C88.8246 25.9271 89.2649 23.9669 90.1456 22.2812C91.0357 20.5862 92.3 19.2652 93.9382 18.3182C95.5859 17.3712 97.5509 16.8977 99.8331 16.8977C101.85 16.8977 103.607 17.2623 105.103 17.9915C106.609 18.7206 107.783 19.7528 108.626 21.0881C109.478 22.4138 109.928 23.9716 109.975 25.7614H103.484C103.351 24.6439 102.972 23.768 102.347 23.1335C101.732 22.4991 100.927 22.1818 99.9325 22.1818C99.1276 22.1818 98.4221 22.4091 97.8161 22.8636C97.21 23.3087 96.7365 23.9716 96.3956 24.8523C96.0642 25.7235 95.8984 26.803 95.8984 28.0909C95.8984 29.3788 96.0642 30.4678 96.3956 31.358C96.7365 32.2386 97.21 32.9062 97.8161 33.3608C98.4221 33.8059 99.1276 34.0284 99.9325 34.0284C100.576 34.0284 101.145 33.8911 101.637 33.6165C102.139 33.3419 102.551 32.9394 102.873 32.4091C103.195 31.8693 103.398 31.2159 103.484 30.4489H109.975C109.909 32.2481 109.459 33.8201 108.626 35.1648C107.802 36.5095 106.642 37.5559 105.146 38.304C103.659 39.0426 101.893 39.4119 99.8473 39.4119ZM120.476 26.5568V39H113.53V9.90909H120.249V21.1875H120.49C120.982 19.8428 121.787 18.7917 122.905 18.0341C124.032 17.2765 125.41 16.8977 127.038 16.8977C128.572 16.8977 129.908 17.2386 131.044 17.9205C132.18 18.5928 133.061 19.5445 133.686 20.7756C134.321 22.0066 134.633 23.446 134.624 25.0938V39H127.678V26.4574C127.687 25.2453 127.384 24.2983 126.768 23.6165C126.153 22.9347 125.286 22.5938 124.169 22.5938C123.44 22.5938 122.796 22.7547 122.237 23.0767C121.688 23.3892 121.257 23.839 120.945 24.4261C120.642 25.0133 120.485 25.7235 120.476 26.5568Z" fill="#BFC21E"/>
</svg>
